<svg width="32" height="32" viewBox="0 0 32 32" fill="none" xmlns="http://www.w3.org/2000/svg">
<g clip-path="url(#clip0_145_21)">
<g filter="url(#filter0_d_145_21)">
<path d="M4.4 9.09998C3.71044 9.09998 3.04912 9.3739 2.56152 9.8615C2.07393 10.3491 1.8 11.0104 1.8 11.7V22.1H4.4V16.9H7V22.1H9.6V11.7C9.6 11.0104 9.32607 10.3491 8.83848 9.8615C8.35088 9.3739 7.68956 9.09998 7 9.09998H4.4ZM4.4 11.7H7V14.3H4.4V11.7ZM20 13.65V11.7C20 11.0104 19.7261 10.3491 19.2385 9.8615C18.7509 9.3739 18.0896 9.09998 17.4 9.09998H12.2V22.1H17.4C18.0896 22.1 18.7509 21.826 19.2385 21.3385C19.7261 20.8509 20 20.1895 20 19.5V17.55C19.9868 17.037 19.7772 16.5486 19.4143 16.1857C19.0514 15.8228 18.563 15.6131 18.05 15.6C18.563 15.5868 19.0514 15.3771 19.4143 15.0143C19.7772 14.6514 19.9868 14.163 20 13.65ZM17.4 19.5H14.8V16.9H17.4V19.5ZM17.4 14.3H14.8V11.7H17.4V14.3ZM25.2 9.09998C24.5104 9.09998 23.8491 9.3739 23.3615 9.8615C22.8739 10.3491 22.6 11.0104 22.6 11.7V19.5C22.6 20.1895 22.8739 20.8509 23.3615 21.3385C23.8491 21.826 24.5104 22.1 25.2 22.1H27.8C28.4896 22.1 29.1509 21.826 29.6385 21.3385C30.1261 20.8509 30.4 20.1895 30.4 19.5V18.2H27.8V19.5H25.2V11.7H27.8V13H30.4V11.7C30.4 11.0104 30.1261 10.3491 29.6385 9.8615C29.1509 9.3739 28.4896 9.09998 27.8 9.09998H25.2Z" fill="#233255"/>
</g>
</g>
<defs>
<filter id="filter0_d_145_21" x="-2.2" y="9.09998" width="36.6" height="21" filterUnits="userSpaceOnUse" color-interpolation-filters="sRGB">
<feFlood flood-opacity="0" result="BackgroundImageFix"/>
<feColorMatrix in="SourceAlpha" type="matrix" values="0 0 0 0 0 0 0 0 0 0 0 0 0 0 0 0 0 0 127 0" result="hardAlpha"/>
<feOffset dy="4"/>
<feGaussianBlur stdDeviation="2"/>
<feComposite in2="hardAlpha" operator="out"/>
<feColorMatrix type="matrix" values="0 0 0 0 0 0 0 0 0 0 0 0 0 0 0 0 0 0 0.25 0"/>
<feBlend mode="normal" in2="BackgroundImageFix" result="effect1_dropShadow_145_21"/>
<feBlend mode="normal" in="SourceGraphic" in2="effect1_dropShadow_145_21" result="shape"/>
</filter>
<clipPath id="clip0_145_21">
<rect width="31.2" height="31.2" fill="white" transform="translate(0.5)"/>
</clipPath>
</defs>
</svg>
