<svg width="32" height="32" viewBox="0 0 32 32" fill="none" xmlns="http://www.w3.org/2000/svg">
<g clip-path="url(#clip0_145_88)">
<g filter="url(#filter0_d_145_88)">
<path fill-rule="evenodd" clip-rule="evenodd" d="M4.39999 3.90002H24.55V7.15002H23.25V5.20002H5.69999V20.15H19.6015V21.45H4.39999V3.90002ZM23.9 12.35C24.4172 12.35 24.9132 12.1446 25.2789 11.7789C25.6445 11.4132 25.85 10.9172 25.85 10.4C25.85 9.88285 25.6445 9.38686 25.2789 9.02117C24.9132 8.65547 24.4172 8.45002 23.9 8.45002C23.3828 8.45002 22.8868 8.65547 22.5211 9.02117C22.1554 9.38686 21.95 9.88285 21.95 10.4C21.95 10.9172 22.1554 11.4132 22.5211 11.7789C22.8868 12.1446 23.3828 12.35 23.9 12.35ZM25.2201 13.6565C26.0645 13.6565 26.7327 14.0361 27.1701 14.6224C27.579 15.1717 27.7519 15.8509 27.7909 16.4782C27.8291 17.1216 27.7414 17.7663 27.5328 18.3762C27.3378 18.9417 27.0083 19.5267 26.5 19.9277V26.325C26.5005 26.57 26.4087 26.8062 26.243 26.9866C26.0772 27.1669 25.8497 27.2783 25.6055 27.2986C25.3614 27.3188 25.1186 27.2464 24.9254 27.0958C24.7323 26.9451 24.6029 26.7273 24.563 26.4856L23.7245 21.45H23.5308L22.5831 26.5044C22.5381 26.743 22.4057 26.9562 22.2119 27.1023C22.018 27.2484 21.7766 27.3169 21.5349 27.2945C21.2932 27.2721 21.0685 27.1603 20.9049 26.981C20.7412 26.8017 20.6503 26.5678 20.65 26.325V17.0515C20.52 17.2495 20.3917 17.4486 20.2652 17.6488L20.2145 17.7288L20.2015 17.7496L20.1982 17.7554C20.1106 17.8961 19.9886 18.0121 19.8437 18.0925C19.6988 18.1729 19.5359 18.2151 19.3701 18.215H16.1201C15.8616 18.215 15.6136 18.1123 15.4307 17.9294C15.2479 17.7466 15.1451 17.4986 15.1451 17.24C15.1451 16.9814 15.2479 16.7334 15.4307 16.5505C15.6136 16.3677 15.8616 16.265 16.1201 16.265H18.8352C18.9931 16.0206 19.2011 15.7034 19.4195 15.3849C19.647 15.0527 19.8979 14.7011 20.1215 14.4255C20.2301 14.2909 20.3516 14.1505 20.4738 14.0355C20.5336 13.9789 20.6168 13.9055 20.7182 13.8405C20.8972 13.723 21.1061 13.6594 21.3201 13.6572H25.2201V13.6565Z" fill="#233255"/>
</g>
</g>
<defs>
<filter id="filter0_d_145_88" x="0.399994" y="3.90002" width="31.3996" height="31.4019" filterUnits="userSpaceOnUse" color-interpolation-filters="sRGB">
<feFlood flood-opacity="0" result="BackgroundImageFix"/>
<feColorMatrix in="SourceAlpha" type="matrix" values="0 0 0 0 0 0 0 0 0 0 0 0 0 0 0 0 0 0 127 0" result="hardAlpha"/>
<feOffset dy="4"/>
<feGaussianBlur stdDeviation="2"/>
<feComposite in2="hardAlpha" operator="out"/>
<feColorMatrix type="matrix" values="0 0 0 0 0 0 0 0 0 0 0 0 0 0 0 0 0 0 0.25 0"/>
<feBlend mode="normal" in2="BackgroundImageFix" result="effect1_dropShadow_145_88"/>
<feBlend mode="normal" in="SourceGraphic" in2="effect1_dropShadow_145_88" result="shape"/>
</filter>
<clipPath id="clip0_145_88">
<rect width="31.2" height="31.2" fill="white" transform="translate(0.5)"/>
</clipPath>
</defs>
</svg>
