<svg width="25" height="25" viewBox="0 0 25 25" fill="none" xmlns="http://www.w3.org/2000/svg">
<g opacity="0.7">
<path d="M22.1359 22.1354L18.3073 18.0854C19.8301 16.5081 20.7234 14.4283 20.8188 12.2379C20.9142 10.0476 20.2052 7.898 18.8252 6.19431C17.4453 4.49061 15.4899 3.35051 13.3275 2.98888C11.1651 2.62726 8.9451 3.06909 7.08594 4.23109C5.22678 5.3931 3.85687 7.19502 3.23441 9.29723C2.61196 11.3994 2.77995 13.6567 3.70672 15.6436C4.6335 17.6306 6.25505 19.2099 8.26573 20.0839C10.2764 20.9579 12.5374 21.0662 14.6224 20.3885" fill="#7FBDE4" fill-opacity="0.13"/>
<path d="M22.1359 22.1354L18.3073 18.0854C19.8301 16.5081 20.7234 14.4283 20.8188 12.2379C20.9142 10.0476 20.2052 7.898 18.8252 6.19431C17.4453 4.49061 15.4899 3.35051 13.3275 2.98888C11.1651 2.62726 8.9451 3.06909 7.08594 4.23109C5.22678 5.3931 3.85687 7.19502 3.23441 9.29723C2.61196 11.3994 2.77995 13.6567 3.70672 15.6436C4.6335 17.6306 6.25505 19.2099 8.26573 20.0839C10.2764 20.9579 12.5374 21.0662 14.6224 20.3885" stroke="#7FBDE4" stroke-opacity="0.77" stroke-width="2" stroke-linecap="round" stroke-linejoin="round"/>
</g>
</svg>
