<svg width="32" height="32" viewBox="0 0 32 32" fill="none" xmlns="http://www.w3.org/2000/svg">
<g clip-path="url(#clip0_145_117)">
<g filter="url(#filter0_d_145_117)">
<path d="M28.1047 6.8738L16.4047 2.9738C16.2061 2.91271 15.9938 2.91271 15.7953 2.9738L4.10748 6.8738H4.0831L3.96123 6.93474H3.94904L3.82716 7.00786C3.82716 7.02005 3.81498 7.02005 3.80279 7.03224L3.70529 7.11755L3.61998 7.21505C3.61998 7.22724 3.60779 7.22724 3.60779 7.23942L3.53466 7.34911C3.53466 7.3613 3.53466 7.3613 3.52248 7.37349L3.47373 7.48317L3.43716 7.61724V7.6538C3.42514 7.70156 3.42103 7.75096 3.42498 7.80005V17.55C3.42498 17.8086 3.5277 18.0566 3.71055 18.2395C3.8934 18.4223 4.14139 18.5251 4.39998 18.5251C4.65856 18.5251 4.90656 18.4223 5.0894 18.2395C5.27225 18.0566 5.37498 17.8086 5.37498 17.55V9.15286L9.46997 10.5179C8.70065 11.7493 8.29506 13.1731 8.29997 14.625C8.30042 15.9456 8.63612 17.2444 9.27562 18.3997C9.91511 19.5551 10.8375 20.5291 11.9562 21.2307C9.63134 22.1102 7.64655 23.7065 6.28904 25.7888C6.15067 26.0076 6.10379 26.272 6.1585 26.5251C6.21321 26.7781 6.36514 26.9995 6.58154 27.1416C6.68774 27.212 6.80684 27.2606 6.93195 27.2846C7.05706 27.3086 7.18569 27.3075 7.31039 27.2814C7.43508 27.2554 7.55337 27.2048 7.65838 27.1327C7.7634 27.0606 7.85305 26.9683 7.92216 26.8613C8.80713 25.4981 10.0188 24.3778 11.4471 23.6022C12.8753 22.8266 14.4747 22.4203 16.1 22.4203C17.7252 22.4203 19.3247 22.8266 20.7529 23.6022C22.1811 24.3778 23.3928 25.4981 24.2778 26.8613C24.3668 26.9965 24.488 27.1073 24.6306 27.1839C24.7731 27.2605 24.9325 27.3004 25.0943 27.3001C25.2811 27.302 25.464 27.2467 25.6184 27.1416C25.8348 26.9995 25.9867 26.7781 26.0414 26.5251C26.0962 26.272 26.0493 26.0076 25.9109 25.7888C24.5534 23.7065 22.5686 22.1102 20.2437 21.2307C21.3625 20.5291 22.2848 19.5551 22.9243 18.3997C23.5638 17.2444 23.8995 15.9456 23.9 14.625C23.9049 13.1731 23.4993 11.7493 22.73 10.5179L28.1047 8.7263C28.2997 8.66218 28.4696 8.53812 28.59 8.3718C28.7104 8.20547 28.7752 8.00538 28.7752 7.80005C28.7752 7.59472 28.7104 7.39462 28.59 7.2283C28.4696 7.06198 28.2997 6.93791 28.1047 6.8738ZM16.1 20.4751C14.5485 20.4751 13.0605 19.8587 11.9634 18.7616C10.8663 17.6645 10.25 16.1766 10.25 14.625C10.2523 13.3767 10.649 12.1611 11.3834 11.1516L15.7953 12.6263C15.9932 12.6914 16.2068 12.6914 16.4047 12.6263L20.8165 11.1516C21.5509 12.1611 21.9476 13.3767 21.95 14.625C21.95 16.1766 21.3336 17.6645 20.2365 18.7616C19.1395 19.8587 17.6515 20.4751 16.1 20.4751Z" fill="#11285E"/>
</g>
</g>
<defs>
<filter id="filter0_d_145_117" x="0.303523" y="2.92798" width="31.5917" height="30.6138" filterUnits="userSpaceOnUse" color-interpolation-filters="sRGB">
<feFlood flood-opacity="0" result="BackgroundImageFix"/>
<feColorMatrix in="SourceAlpha" type="matrix" values="0 0 0 0 0 0 0 0 0 0 0 0 0 0 0 0 0 0 127 0" result="hardAlpha"/>
<feOffset dy="3.12"/>
<feGaussianBlur stdDeviation="1.56"/>
<feComposite in2="hardAlpha" operator="out"/>
<feColorMatrix type="matrix" values="0 0 0 0 0 0 0 0 0 0 0 0 0 0 0 0 0 0 0.25 0"/>
<feBlend mode="normal" in2="BackgroundImageFix" result="effect1_dropShadow_145_117"/>
<feBlend mode="normal" in="SourceGraphic" in2="effect1_dropShadow_145_117" result="shape"/>
</filter>
<clipPath id="clip0_145_117">
<rect width="31.2" height="31.2" fill="white" transform="translate(0.5)"/>
</clipPath>
</defs>
</svg>
