<svg width="30" height="30" viewBox="0 0 30 30" fill="none" xmlns="http://www.w3.org/2000/svg">
<path d="M25.9187 4.55005H4.08124C3.76231 4.54948 3.45523 4.67083 3.22285 4.88926C2.99047 5.1077 2.85037 5.4067 2.83124 5.72505V19.6313C2.85037 19.9497 2.99047 20.2487 3.22285 20.4671C3.45523 20.6855 3.76231 20.8069 4.08124 20.8063H5.71249V25.4501L10.875 20.8063H25.9187C26.2377 20.8069 26.5447 20.6855 26.7771 20.4671C27.0095 20.2487 27.1496 19.9497 27.1687 19.6313V5.72505C27.1496 5.4067 27.0095 5.1077 26.7771 4.88926C26.5447 4.67083 26.2377 4.54948 25.9187 4.55005ZM8.90624 10.6251C9.30691 10.6251 9.69862 10.7436 10.0321 10.9657C10.3656 11.1878 10.6259 11.5036 10.7804 11.8733C10.9348 12.243 10.9765 12.6501 10.9001 13.0435C10.8237 13.4368 10.6327 13.7988 10.3512 14.0838C10.0696 14.3688 9.70998 14.5642 9.31762 14.6454C8.92525 14.7266 8.51765 14.6899 8.14608 14.54C7.77451 14.3901 7.45557 14.1336 7.2294 13.8029C7.00323 13.4722 6.87992 13.0819 6.87499 12.6813C6.87083 12.4122 6.92035 12.145 7.02065 11.8953C7.12094 11.6456 7.27001 11.4184 7.45912 11.2269C7.64824 11.0355 7.87362 10.8837 8.12209 10.7803C8.37056 10.677 8.63713 10.6242 8.90624 10.6251ZM15 14.7126C14.5982 14.7126 14.2055 14.5934 13.8715 14.3702C13.5374 14.147 13.2771 13.8298 13.1234 13.4586C12.9696 13.0875 12.9294 12.679 13.0078 12.285C13.0861 11.891 13.2796 11.5291 13.5637 11.245C13.8477 10.9609 14.2097 10.7675 14.6037 10.6891C14.9977 10.6107 15.4061 10.6509 15.7773 10.8047C16.1485 10.9584 16.4657 11.2188 16.6889 11.5528C16.9121 11.8868 17.0312 12.2796 17.0312 12.6813C17.0296 13.2195 16.8151 13.7352 16.4345 14.1158C16.0539 14.4964 15.5382 14.7109 15 14.7126ZM21.0937 14.7126C20.692 14.7126 20.2993 14.5934 19.9652 14.3702C19.6312 14.147 19.3708 13.8298 19.2171 13.4586C19.0634 13.0875 19.0231 12.679 19.1015 12.285C19.1799 11.891 19.3733 11.5291 19.6574 11.245C19.9415 10.9609 20.3034 10.7675 20.6975 10.6891C21.0915 10.6107 21.4999 10.6509 21.8711 10.8047C22.2422 10.9584 22.5595 11.2188 22.7827 11.5528C23.0059 11.8868 23.125 12.2796 23.125 12.6813C23.1233 13.2195 22.9088 13.7352 22.5282 14.1158C22.1476 14.4964 21.6319 14.7109 21.0937 14.7126Z" fill="#FDFDF5"/>
</svg>
