<svg width="30" height="30" viewBox="0 0 30 30" fill="none" xmlns="http://www.w3.org/2000/svg">
<g clip-path="url(#clip0_1_251)">
<path d="M27.1416 13.0999L24.35 12.2666C24.157 11.5926 23.8915 10.9416 23.5583 10.3249L24.925 7.76655C24.9763 7.66998 24.995 7.55945 24.9785 7.45137C24.962 7.34328 24.9111 7.2434 24.8333 7.16655L22.8416 5.16655C22.7648 5.08877 22.6649 5.03785 22.5568 5.02134C22.4487 5.00482 22.3382 5.0236 22.2416 5.07488L19.7 6.43322C19.0772 6.08377 18.4176 5.80429 17.7333 5.59988L16.9 2.84155C16.8647 2.7399 16.7981 2.65205 16.7098 2.59065C16.6214 2.52925 16.5159 2.49747 16.4083 2.49988H13.5916C13.4834 2.50039 13.3782 2.53541 13.2913 2.59986C13.2043 2.66431 13.1402 2.75482 13.1083 2.85822L12.275 5.60822C11.585 5.81153 10.9198 6.09103 10.2916 6.44155L7.79164 5.09155C7.69507 5.04027 7.58455 5.02149 7.47646 5.038C7.36837 5.05452 7.26849 5.10544 7.19164 5.18322L5.16664 7.15822C5.08887 7.23507 5.03794 7.33495 5.02143 7.44303C5.00492 7.55112 5.02369 7.66165 5.07498 7.75822L6.42498 10.2582C6.07502 10.8837 5.79554 11.5461 5.59164 12.2332L2.83331 13.0665C2.72991 13.0985 2.6394 13.1626 2.57495 13.2495C2.5105 13.3364 2.47548 13.4417 2.47498 13.5499V16.3665C2.47548 16.4748 2.5105 16.58 2.57495 16.6669C2.6394 16.7539 2.72991 16.8179 2.83331 16.8499L5.60831 17.6832C5.81443 18.3589 6.09387 19.01 6.44164 19.6249L5.07498 22.2415C5.02369 22.3381 5.00492 22.4486 5.02143 22.5567C5.03794 22.6648 5.08887 22.7647 5.16664 22.8415L7.15831 24.8332C7.23516 24.911 7.33504 24.9619 7.44313 24.9784C7.55121 24.9949 7.66174 24.9762 7.75831 24.9249L10.3333 23.5499C10.9424 23.8786 11.585 24.1412 12.25 24.3332L13.0833 27.1415C13.1152 27.2449 13.1793 27.3355 13.2663 27.3999C13.3532 27.4644 13.4584 27.4994 13.5666 27.4999H16.3833C16.4915 27.4994 16.5968 27.4644 16.6837 27.3999C16.7706 27.3355 16.8347 27.2449 16.8666 27.1415L17.7 24.3249C18.3593 24.1318 18.9962 23.8693 19.6 23.5415L22.1916 24.9249C22.2882 24.9762 22.3987 24.9949 22.5068 24.9784C22.6149 24.9619 22.7148 24.911 22.7916 24.8332L24.7833 22.8415C24.8611 22.7647 24.912 22.6648 24.9285 22.5567C24.945 22.4486 24.9263 22.3381 24.875 22.2415L23.4916 19.6582C23.8228 19.0521 24.0882 18.4124 24.2833 17.7499L27.0916 16.9165C27.195 16.8846 27.2856 16.8205 27.35 16.7336C27.4144 16.6467 27.4495 16.5414 27.45 16.4332V13.5915C27.4549 13.4879 27.428 13.3853 27.3729 13.2974C27.3178 13.2095 27.2371 13.1406 27.1416 13.0999ZM15 19.5832C14.0935 19.5832 13.2073 19.3144 12.4536 18.8108C11.6999 18.3072 11.1124 17.5913 10.7655 16.7538C10.4186 15.9164 10.3279 14.9948 10.5047 14.1057C10.6816 13.2166 11.1181 12.4 11.7591 11.759C12.4001 11.118 13.2167 10.6815 14.1058 10.5046C14.9949 10.3278 15.9164 10.4185 16.7539 10.7654C17.5914 11.1123 18.3073 11.6998 18.8109 12.4535C19.3145 13.2072 19.5833 14.0934 19.5833 14.9999C19.5833 16.2155 19.1004 17.3812 18.2409 18.2408C17.3813 19.1003 16.2156 19.5832 15 19.5832Z" fill="white" fill-opacity="0.9"/>
</g>
<defs>
<clipPath id="clip0_1_251">
<rect width="30" height="30" fill="white"/>
</clipPath>
</defs>
</svg>
