<svg width="30" height="30" viewBox="0 0 30 30" fill="none" xmlns="http://www.w3.org/2000/svg">
<path d="M25.3125 4.6875H4.6875C4.19022 4.6875 3.71331 4.88504 3.36167 5.23667C3.01004 5.58831 2.8125 6.06522 2.8125 6.5625V23.4375C2.8125 23.9348 3.01004 24.4117 3.36167 24.7633C3.71331 25.115 4.19022 25.3125 4.6875 25.3125H6.25781C6.43533 25.313 6.60925 25.2625 6.75885 25.1669C6.90845 25.0713 7.02741 24.9347 7.10156 24.7734C7.56027 23.8135 8.28131 23.0029 9.18132 22.4355C10.0813 21.868 11.1236 21.5669 12.1875 21.5669C13.2514 21.5669 14.2937 21.868 15.1937 22.4355C16.0937 23.0029 16.8147 23.8135 17.2734 24.7734C17.3476 24.9347 17.4666 25.0713 17.6161 25.1669C17.7657 25.2625 17.9397 25.313 18.1172 25.3125H25.3125C25.8098 25.3125 26.2867 25.115 26.6383 24.7633C26.99 24.4117 27.1875 23.9348 27.1875 23.4375V6.5625C27.1875 6.06522 26.99 5.58831 26.6383 5.23667C26.2867 4.88504 25.8098 4.6875 25.3125 4.6875ZM12.1875 19.6875C11.4458 19.6875 10.7208 19.4676 10.1041 19.0555C9.48743 18.6435 9.00678 18.0578 8.72295 17.3726C8.43912 16.6873 8.36486 15.9333 8.50955 15.2059C8.65425 14.4785 9.0114 13.8103 9.53585 13.2859C10.0603 12.7614 10.7285 12.4043 11.4559 12.2596C12.1833 12.1149 12.9373 12.1891 13.6226 12.473C14.3078 12.7568 14.8935 13.2374 15.3055 13.8541C15.7176 14.4708 15.9375 15.1958 15.9375 15.9375C15.9344 16.9311 15.5383 17.8831 14.8357 18.5857C14.1331 19.2883 13.1811 19.6844 12.1875 19.6875ZM25.3125 23.4375H18.6797C18.2735 22.7331 17.755 22.0997 17.1445 21.5625H22.5C22.7486 21.5625 22.9871 21.4637 23.1629 21.2879C23.3387 21.1121 23.4375 20.8736 23.4375 20.625V9.375C23.4375 9.12636 23.3387 8.8879 23.1629 8.71209C22.9871 8.53627 22.7486 8.4375 22.5 8.4375H7.5C7.25136 8.4375 7.0129 8.53627 6.83709 8.71209C6.66127 8.8879 6.5625 9.12636 6.5625 9.375V20.625C6.56369 20.8319 6.6333 21.0326 6.76048 21.1958C6.88767 21.3591 7.06528 21.4756 7.26562 21.5273C6.64042 22.0731 6.10981 22.7185 5.69531 23.4375H4.6875V6.5625H25.3125V23.4375Z" fill="#FDFDF5"/>
</svg>
