<svg width="30" height="30" viewBox="0 0 30 30" fill="none" xmlns="http://www.w3.org/2000/svg">
<g clip-path="url(#clip0_1_204)">
<path d="M10 13.45H9.27501C8.28564 13.4143 7.29948 13.5822 6.37772 13.9435C5.45597 14.3047 4.61829 14.8516 3.91667 15.55L3.71667 15.7834V22.6834H7.11667V18.7667L7.57501 18.25L7.78334 18.0084C8.86828 16.8938 10.219 16.0736 11.7083 15.625C10.9627 15.0576 10.3746 14.3089 10 13.45Z" fill="#FDFDF5"/>
<path d="M26.1167 15.525C25.4151 14.8265 24.5774 14.2797 23.6556 13.9184C22.7339 13.5572 21.7477 13.3892 20.7583 13.425C20.4549 13.4259 20.1517 13.4426 19.85 13.475C19.4684 14.2808 18.8964 14.9815 18.1833 15.5167C19.7733 15.9565 21.2137 16.8207 22.35 18.0167L22.5583 18.25L23.0084 18.7667V22.6917H26.2917V15.7583L26.1167 15.525Z" fill="#FDFDF5"/>
<path d="M9.25002 11.825H9.50835C9.38832 10.7943 9.56916 9.75098 10.029 8.82087C10.4889 7.89075 11.2082 7.11362 12.1 6.58329C11.7767 6.08942 11.3307 5.68796 10.8057 5.41825C10.2806 5.14853 9.69455 5.0198 9.1048 5.04465C8.51505 5.0695 7.94186 5.24709 7.44137 5.56002C6.94087 5.87296 6.53023 6.31051 6.24964 6.82983C5.96906 7.34916 5.82816 7.93245 5.84074 8.52259C5.85332 9.11272 6.01894 9.68948 6.3214 10.1964C6.62385 10.7033 7.05276 11.1229 7.56614 11.4143C8.07951 11.7056 8.65974 11.8586 9.25002 11.8583V11.825Z" fill="#FDFDF5"/>
<path d="M20.3583 11.2C20.3684 11.3916 20.3684 11.5835 20.3583 11.775C20.5182 11.8004 20.6798 11.8143 20.8417 11.8167H21C21.5877 11.7854 22.1572 11.6024 22.6532 11.2856C23.1492 10.9688 23.5547 10.529 23.8302 10.009C24.1057 9.48895 24.2419 8.90644 24.2255 8.31816C24.2091 7.72987 24.0407 7.15586 23.7365 6.65201C23.4324 6.14816 23.0031 5.73163 22.4902 5.44299C21.9773 5.15434 21.3985 5.00341 20.8099 5.00489C20.2214 5.00637 19.6433 5.16021 19.1319 5.45144C18.6205 5.74266 18.1932 6.16134 17.8917 6.66671C18.6459 7.15916 19.2661 7.83113 19.6966 8.62235C20.1271 9.41357 20.3545 10.2993 20.3583 11.2Z" fill="#FDFDF5"/>
<path d="M14.8917 14.9333C16.9489 14.9333 18.6167 13.2655 18.6167 11.2083C18.6167 9.15102 16.9489 7.48328 14.8917 7.48328C12.8344 7.48328 11.1667 9.15102 11.1667 11.2083C11.1667 13.2655 12.8344 14.9333 14.8917 14.9333Z" fill="#FDFDF5"/>
<path d="M15.0916 16.9166C14.0033 16.8727 12.9174 17.0494 11.8992 17.4361C10.8809 17.8227 9.95145 18.4114 9.16665 19.1666L8.95831 19.4V24.675C8.96156 24.8468 8.99864 25.0163 9.06741 25.1738C9.13618 25.3313 9.23531 25.4737 9.35912 25.5929C9.48294 25.712 9.62903 25.8056 9.78903 25.8684C9.94903 25.9311 10.1198 25.9616 10.2916 25.9583H19.8666C20.0385 25.9616 20.2093 25.9311 20.3693 25.8684C20.5293 25.8056 20.6753 25.712 20.7992 25.5929C20.923 25.4737 21.0221 25.3313 21.0909 25.1738C21.1597 25.0163 21.1967 24.8468 21.2 24.675V19.4166L21 19.1666C20.2202 18.4091 19.294 17.8188 18.278 17.4319C17.2621 17.045 16.1778 16.8696 15.0916 16.9166Z" fill="#FDFDF5"/>
</g>
<defs>
<clipPath id="clip0_1_204">
<rect width="30" height="30" fill="white"/>
</clipPath>
</defs>
</svg>
