<svg width="30" height="30" viewBox="0 0 30 30" fill="none" xmlns="http://www.w3.org/2000/svg">
<path d="M3.75 8.75C3.08696 8.75 2.45107 9.01339 1.98223 9.48223C1.51339 9.95107 1.25 10.587 1.25 11.25V21.25H3.75V16.25H6.25V21.25H8.75V11.25C8.75 10.587 8.48661 9.95107 8.01777 9.48223C7.54893 9.01339 6.91304 8.75 6.25 8.75H3.75ZM3.75 11.25H6.25V13.75H3.75V11.25ZM18.75 13.125V11.25C18.75 10.587 18.4866 9.95107 18.0178 9.48223C17.5489 9.01339 16.913 8.75 16.25 8.75H11.25V21.25H16.25C16.913 21.25 17.5489 20.9866 18.0178 20.5178C18.4866 20.0489 18.75 19.413 18.75 18.75V16.875C18.7373 16.3817 18.5357 15.9121 18.1868 15.5632C17.8379 15.2143 17.3683 15.0127 16.875 15C17.3683 14.9873 17.8379 14.7857 18.1868 14.4368C18.5357 14.0879 18.7373 13.6183 18.75 13.125ZM16.25 18.75H13.75V16.25H16.25V18.75ZM16.25 13.75H13.75V11.25H16.25V13.75ZM23.75 8.75C23.087 8.75 22.4511 9.01339 21.9822 9.48223C21.5134 9.95107 21.25 10.587 21.25 11.25V18.75C21.25 19.413 21.5134 20.0489 21.9822 20.5178C22.4511 20.9866 23.087 21.25 23.75 21.25H26.25C26.913 21.25 27.5489 20.9866 28.0178 20.5178C28.4866 20.0489 28.75 19.413 28.75 18.75V17.5H26.25V18.75H23.75V11.25H26.25V12.5H28.75V11.25C28.75 10.587 28.4866 9.95107 28.0178 9.48223C27.5489 9.01339 26.913 8.75 26.25 8.75H23.75Z" fill="#FDFDF5"/>
</svg>
